{
  "accessors": [
    {
      "bufferView": 2,
      "componentType": 5126,
      "count": 4219,
      "max": [
        27.822996139526367,
        34.00217056274414,
        9.960198402404785
      ],
      "min": [
        -27.80924415588379,
        24.851089477539063,
        -2.795945882797241
      ],
      "type": "VEC3"
    },
    {
      "bufferView": 2,
      "byteOffset": 50628,
      "componentType": 5126,
      "count": 4219,
      "max": [
        0.9995656609535217,
        0.9983833432197571,
        0.9996213316917419
      ],
      "min": [
        -0.9996591210365295,
        -0.9999226331710815,
        -0.9998651146888733
      ],
      "type": "VEC3"
    },
    {
      "bufferView": 3,
      "componentType": 5126,
      "count": 4219,
      "max": [
        0.9997857809066772,
        0.9999757409095764,
        0.9992529153823853,
        1.0
      ],
      "min": [
        -0.9999086260795593,
        -0.9997968673706055,
        -0.9995952248573303,
        -1.0
      ],
      "type": "VEC4"
    },
    {
      "bufferView": 1,
      "componentType": 5126,
      "count": 4219,
      "max": [
        0.9952099919319153,
        0.9859099984169006
      ],
      "min": [
        0.22588999569416046,
        0.1672700047492981
      ],
      "type": "VEC2"
    },
    {
      "bufferView": 0,
      "componentType": 5125,
      "count": 23892,
      "type": "SCALAR"
    },
    {
      "bufferView": 2,
      "byteOffset": 101256,
      "componentType": 5126,
      "count": 4290,
      "max": [
        15.260043144226074,
        43.77149200439453,
        6.786606788635254
      ],
      "min": [
        -15.257489204406738,
        38.813072204589844,
        0.3372969925403595
      ],
      "type": "VEC3"
    },
    {
      "bufferView": 2,
      "byteOffset": 152736,
      "componentType": 5126,
      "count": 4290,
      "max": [
        0.9999911189079285,
        0.9994730949401855,
        0.9994348883628845
      ],
      "min": [
        -0.9999911189079285,
        -0.9994329810142517,
        -0.9994348883628845
      ],
      "type": "VEC3"
    },
    {
      "bufferView": 3,
      "byteOffset": 67504,
      "componentType": 5126,
      "count": 4290,
      "max": [
        0.7362128496170044,
        0.7298064827919006,
        0.9999004602432251,
        1.0
      ],
      "min": [
        -0.719527006149292,
        -0.7405840754508972,
        -0.9999976754188538,
        1.0
      ],
      "type": "VEC4"
    },
    {
      "bufferView": 1,
      "byteOffset": 33752,
      "componentType": 5126,
      "count": 4290,
      "max": [
        0.6461700201034546,
        0.9965400099754333
      ],
      "min": [
        0.5023599863052368,
        0.9185900092124939
      ],
      "type": "VEC2"
    },
    {
      "bufferView": 0,
      "byteOffset": 95568,
      "componentType": 5125,
      "count": 24576,
      "type": "SCALAR"
    },
    {
      "bufferView": 2,
      "byteOffset": 204216,
      "componentType": 5126,
      "count": 8129,
      "max": [
        8.784985542297363,
        40.68256378173828,
        12.295219421386719
      ],
      "min": [
        5.973642826080322,
        37.87122344970703,
        9.483880043029785
      ],
      "type": "VEC3"
    },
    {
      "bufferView": 2,
      "byteOffset": 301764,
      "componentType": 5126,
      "count": 8129,
      "max": [
        1.0,
        1.0,
        1.0
      ],
      "min": [
        -1.0,
        -1.0,
        -1.0
      ],
      "type": "VEC3"
    },
    {
      "bufferView": 3,
      "byteOffset": 136144,
      "componentType": 5126,
      "count": 8129,
      "max": [
        0.9077300429344177,
        0.9986985921859741,
        0.9999998211860657,
        1.0
      ],
      "min": [
        -0.9999574422836304,
        -0.9984570741653442,
        -0.44011157751083374,
        1.0
      ],
      "type": "VEC4"
    },
    {
      "bufferView": 1,
      "byteOffset": 68072,
      "componentType": 5126,
      "count": 8129,
      "max": [
        0.9980400204658508,
        0.7188799977302551
      ],
      "min": [
        0.9614999890327454,
        0.6663900017738342
      ],
      "type": "VEC2"
    },
    {
      "bufferView": 0,
      "byteOffset": 193872,
      "componentType": 5125,
      "count": 48384,
      "type": "SCALAR"
    },
    {
      "bufferView": 2,
      "byteOffset": 399312,
      "componentType": 5126,
      "count": 1565,
      "max": [
        8.627459526062012,
        42.55703353881836,
        10.911770820617676
      ],
      "min": [
        5.327931880950928,
        39.16412353515625,
        7.727048873901367
      ],
      "type": "VEC3"
    },
    {
      "bufferView": 2,
      "byteOffset": 418092,
      "componentType": 5126,
      "count": 1565,
      "max": [
        0.9888432621955872,
        0.9994277358055115,
        0.9899985790252686
      ],
      "min": [
        -0.9999352097511292,
        -0.9994166493415833,
        -0.9988334774971008
      ],
      "type": "VEC3"
    },
    {
      "bufferView": 3,
      "byteOffset": 266208,
      "componentType": 5126,
      "count": 1565,
      "max": [
        0.7442980408668518,
        0.9995009899139404,
        0.9221587181091309,
        1.0
      ],
      "min": [
        -0.9996887445449829,
        -0.9975265860557556,
        -0.9994964599609375,
        1.0
      ],
      "type": "VEC4"
    },
    {
      "bufferView": 1,
      "byteOffset": 133104,
      "componentType": 5126,
      "count": 1565,
      "max": [
        0.985289990901947,
        0.29690998792648315
      ],
      "min": [
        0.9429600238800049,
        0.24845999479293823
      ],
      "type": "VEC2"
    },
    {
      "bufferView": 0,
      "byteOffset": 387408,
      "componentType": 5125,
      "count": 9216,
      "type": "SCALAR"
    },
    {
      "bufferView": 2,
      "byteOffset": 436872,
      "componentType": 5126,
      "count": 8635,
      "max": [
        28.12565040588379,
        48.2552490234375,
        15.084031105041504
      ],
      "min": [
        -28.12565040588379,
        22.20733642578125,
        -7.999499797821045
      ],
      "type": "VEC3"
    },
    {
      "bufferView": 2,
      "byteOffset": 540492,
      "componentType": 5126,
      "count": 8635,
      "max": [
        0.9997718930244446,
        0.999991774559021,
        0.9999892115592957
      ],
      "min": [
        -0.9997718930244446,
        -0.9999555349349976,
        -0.9995670914649963
      ],
      "type": "VEC3"
    },
    {
      "bufferView": 3,
      "byteOffset": 291248,
      "componentType": 5126,
      "count": 8635,
      "max": [
        1.0,
        0.9999778866767883,
        0.9999624490737915,
        1.0
      ],
      "min": [
        -0.9999850392341614,
        -0.9999724626541138,
        -0.9992990493774414,
        1.0
      ],
      "type": "VEC4"
    },
    {
      "bufferView": 1,
      "byteOffset": 145624,
      "componentType": 5126,
      "count": 8635,
      "max": [
        0.960860013961792,
        0.9180300235748291
      ],
      "min": [
        0.3284499943256378,
        0.07267999649047852
      ],
      "type": "VEC2"
    },
    {
      "bufferView": 0,
      "byteOffset": 424272,
      "componentType": 5125,
      "count": 50220,
      "type": "SCALAR"
    },
    {
      "bufferView": 2,
      "byteOffset": 644112,
      "componentType": 5126,
      "count": 1910,
      "max": [
        15.437644004821777,
        28.10797882080078,
        10.842123031616211
      ],
      "min": [
        -15.437678337097168,
        6.021069049835205,
        -1.3326510190963745
      ],
      "type": "VEC3"
    },
    {
      "bufferView": 2,
      "byteOffset": 667032,
      "componentType": 5126,
      "count": 1910,
      "max": [
        0.9983005523681641,
        1.0,
        0.9955450296401978
      ],
      "min": [
        -0.9983009099960327,
        -0.9998160004615784,
        -0.9943256378173828
      ],
      "type": "VEC3"
    },
    {
      "bufferView": 3,
      "byteOffset": 429408,
      "componentType": 5126,
      "count": 1910,
      "max": [
        0.9999650120735168,
        0.9987815618515015,
        0.9999560713768005,
        1.0
      ],
      "min": [
        -0.9963144659996033,
        -0.9965196251869202,
        -0.9978305697441101,
        -1.0
      ],
      "type": "VEC4"
    },
    {
      "bufferView": 1,
      "byteOffset": 214704,
      "componentType": 5126,
      "count": 1910,
      "max": [
        0.8417099714279175,
        0.9460700154304504
      ],
      "min": [
        0.13085000216960907,
        0.265390008687973
      ],
      "type": "VEC2"
    },
    {
      "bufferView": 0,
      "byteOffset": 625152,
      "componentType": 5125,
      "count": 11028,
      "type": "SCALAR"
    },
    {
      "bufferView": 2,
      "byteOffset": 689952,
      "componentType": 5126,
      "count": 3053,
      "max": [
        28.184492111206055,
        73.4246597290039,
        16.689916610717773
      ],
      "min": [
        -28.179248809814453,
        44.62348175048828,
        -10.394257545471191
      ],
      "type": "VEC3"
    },
    {
      "bufferView": 2,
      "byteOffset": 726588,
      "componentType": 5126,
      "count": 3053,
      "max": [
        0.9977376461029053,
        0.999546229839325,
        0.9999575018882751
      ],
      "min": [
        -0.997528612613678,
        -0.9991896152496338,
        -0.999380886554718
      ],
      "type": "VEC3"
    },
    {
      "bufferView": 3,
      "byteOffset": 459968,
      "componentType": 5126,
      "count": 3053,
      "max": [
        1.0,
        0.9930005669593811,
        0.999791145324707,
        1.0
      ],
      "min": [
        -0.23060981929302216,
        -0.9846218228340149,
        -0.999265193939209,
        1.0
      ],
      "type": "VEC4"
    },
    {
      "bufferView": 1,
      "byteOffset": 229984,
      "componentType": 5126,
      "count": 3053,
      "max": [
        0.5552600026130676,
        0.6499000191688538
      ],
      "min": [
        0.0019499999471008778,
        0.0019499999471008778
      ],
      "type": "VEC2"
    },
    {
      "bufferView": 0,
      "byteOffset": 669264,
      "componentType": 5125,
      "count": 17952,
      "type": "SCALAR"
    },
    {
      "bufferView": 2,
      "byteOffset": 763224,
      "componentType": 5126,
      "count": 500,
      "max": [
        -8.205414772033691,
        60.96351623535156,
        16.276565551757813
      ],
      "min": [
        -16.208717346191406,
        52.96017074584961,
        8.273284912109375
      ],
      "type": "VEC3"
    },
    {
      "bufferView": 2,
      "byteOffset": 769224,
      "componentType": 5126,
      "count": 500,
      "max": [
        1.0,
        1.0,
        1.0
      ],
      "min": [
        -1.0,
        -1.0,
        -1.0
      ],
      "type": "VEC3"
    },
    {
      "bufferView": 3,
      "byteOffset": 508816,
      "componentType": 5126,
      "count": 500,
      "max": [
        0.9732365608215332,
        0.995202362537384,
        0.9998961091041565,
        1.0
      ],
      "min": [
        -0.9923637509346008,
        -0.7877622246742249,
        -0.9999998807907104,
        -1.0
      ],
      "type": "VEC4"
    },
    {
      "bufferView": 1,
      "byteOffset": 254408,
      "componentType": 5126,
      "count": 500,
      "max": [
        0.9813200235366821,
        0.4995400011539459
      ],
      "min": [
        0.8420799970626831,
        0.3841100037097931
      ],
      "type": "VEC2"
    },
    {
      "bufferView": 0,
      "byteOffset": 741072,
      "componentType": 5125,
      "count": 2880,
      "type": "SCALAR"
    },
    {
      "bufferView": 2,
      "byteOffset": 775224,
      "componentType": 5126,
      "count": 486,
      "max": [
        16.208721160888672,
        60.96351623535156,
        16.276565551757813
      ],
      "min": [
        8.205416679382324,
        52.96017074584961,
        8.273284912109375
      ],
      "type": "VEC3"
    },
    {
      "bufferView": 2,
      "byteOffset": 781056,
      "componentType": 5126,
      "count": 486,
      "max": [
        1.0,
        1.0,
        1.0
      ],
      "min": [
        -1.0,
        -1.0,
        -1.0
      ],
      "type": "VEC3"
    },
    {
      "bufferView": 3,
      "byteOffset": 516816,
      "componentType": 5126,
      "count": 486,
      "max": [
        0.9990740418434143,
        0.9794807434082031,
        0.9999979138374329,
        1.0
      ],
      "min": [
        -0.9601286053657532,
        -0.9921427965164185,
        -0.9999977350234985,
        -1.0
      ],
      "type": "VEC4"
    },
    {
      "bufferView": 1,
      "byteOffset": 258408,
      "componentType": 5126,
      "count": 486,
      "max": [
        0.12302999943494797,
        0.7034500241279602
      ],
      "min": [
        0.02022000029683113,
        0.5706300139427185
      ],
      "type": "VEC2"
    },
    {
      "bufferView": 0,
      "byteOffset": 752592,
      "componentType": 5125,
      "count": 2880,
      "type": "SCALAR"
    },
    {
      "bufferView": 2,
      "byteOffset": 786888,
      "componentType": 5126,
      "count": 2060,
      "max": [
        16.221376419067383,
        60.97500991821289,
        19.741161346435547
      ],
      "min": [
        -16.221435546875,
        52.98957061767578,
        12.885202407836914
      ],
      "type": "VEC3"
    },
    {
      "bufferView": 2,
      "byteOffset": 811608,
      "componentType": 5126,
      "count": 2060,
      "max": [
        0.9980166554450989,
        0.9975601434707642,
        0.9999969005584717
      ],
      "min": [
        -0.9980161190032959,
        -0.9967876672744751,
        -0.9979852437973022
      ],
      "type": "VEC3"
    },
    {
      "bufferView": 3,
      "byteOffset": 524592,
      "componentType": 5126,
      "count": 2060,
      "max": [
        0.9997327327728271,
        0.999571681022644,
        0.9986047744750977,
        1.0
      ],
      "min": [
        -0.9987015128135681,
        -0.9997434020042419,
        -0.9984779953956604,
        1.0
      ],
      "type": "VEC4"
    },
    {
      "bufferView": 1,
      "byteOffset": 262296,
      "componentType": 5126,
      "count": 2060,
      "max": [
        0.9735299944877625,
        0.9954599738121033
      ],
      "min": [
        0.04089000076055527,
        0.705079972743988
      ],
      "type": "VEC2"
    },
    {
      "bufferView": 0,
      "byteOffset": 764112,
      "componentType": 5125,
      "count": 11544,
      "type": "SCALAR"
    },
    {
      "bufferView": 2,
      "byteOffset": 836328,
      "componentType": 5126,
      "count": 2022,
      "max": [
        36.787818908691406,
        59.28281021118164,
        6.10862922668457
      ],
      "min": [
        -36.7879753112793,
        54.23139572143555,
        1.1669609546661377
      ],
      "type": "VEC3"
    },
    {
      "bufferView": 2,
      "byteOffset": 860592,
      "componentType": 5126,
      "count": 2022,
      "max": [
        1.0,
        0.9999352097511292,
        0.9984293580055237
      ],
      "min": [
        -1.0,
        -0.9999291300773621,
        -0.9967653751373291
      ],
      "type": "VEC3"
    },
    {
      "bufferView": 3,
      "byteOffset": 557552,
      "componentType": 5126,
      "count": 2022,
      "max": [
        0.9950239062309265,
        0.996272623538971,
        0.9986053705215454,
        1.0
      ],
      "min": [
        -0.9998268485069275,
        -0.9998955726623535,
        -0.999886691570282,
        1.0
      ],
      "type": "VEC4"
    },
    {
      "bufferView": 1,
      "byteOffset": 278776,
      "componentType": 5126,
      "count": 2022,
      "max": [
        0.9772999882698059,
        0.9916200041770935
      ],
      "min": [
        0.3464600145816803,
        0.6060100197792053
      ],
      "type": "VEC2"
    },
    {
      "bufferView": 0,
      "byteOffset": 810288,
      "componentType": 5125,
      "count": 11520,
      "type": "SCALAR"
    }
  ],
  "asset": {
    "extras": {
      "author": "JamalBenjamin (https://sketchfab.com/JamalBenjamin)",
      "license": "CC-BY-4.0 (http://creativecommons.org/licenses/by/4.0/)",
      "source": "https://sketchfab.com/3d-models/intl-model-toys-105850b40786435eb9c33a720dc0fda6",
      "title": "Int'l Model Toys"
    },
    "generator": "Sketchfab-12.94.0",
    "version": "2.0"
  },
  "bufferViews": [
    {
      "buffer": 0,
      "byteLength": 856368,
      "name": "floatBufferViews",
      "target": 34963
    },
    {
      "buffer": 0,
      "byteLength": 294952,
      "byteOffset": 856368,
      "byteStride": 8,
      "name": "floatBufferViews",
      "target": 34962
    },
    {
      "buffer": 0,
      "byteLength": 884856,
      "byteOffset": 1151320,
      "byteStride": 12,
      "name": "floatBufferViews",
      "target": 34962
    },
    {
      "buffer": 0,
      "byteLength": 589904,
      "byteOffset": 2036176,
      "byteStride": 16,
      "name": "floatBufferViews",
      "target": 34962
    }
  ],
  "buffers": [
    {
      "byteLength": 2626080,
      "uri": "scene.bin"
    }
  ],
  "images": [
    {
      "uri": "textures/1001_baseColor.png"
    },
    {
      "uri": "textures/1001_metallicRoughness.png"
    },
    {
      "uri": "textures/1001_normal.png"
    }
  ],
  "materials": [
    {
      "alphaMode": "BLEND",
      "doubleSided": true,
      "name": "1001",
      "normalTexture": {
        "index": 2
      },
      "pbrMetallicRoughness": {
        "baseColorTexture": {
          "index": 0
        },
        "metallicRoughnessTexture": {
          "index": 1
        }
      }
    }
  ],
  "meshes": [
    {
      "name": "defaultMaterial",
      "primitives": [
        {
          "attributes": {
            "NORMAL": 1,
            "POSITION": 0,
            "TANGENT": 2,
            "TEXCOORD_0": 3
          },
          "indices": 4,
          "material": 0,
          "mode": 4
        }
      ]
    },
    {
      "name": "defaultMaterial",
      "primitives": [
        {
          "attributes": {
            "NORMAL": 6,
            "POSITION": 5,
            "TANGENT": 7,
            "TEXCOORD_0": 8
          },
          "indices": 9,
          "material": 0,
          "mode": 4
        }
      ]
    },
    {
      "name": "defaultMaterial",
      "primitives": [
        {
          "attributes": {
            "NORMAL": 11,
            "POSITION": 10,
            "TANGENT": 12,
            "TEXCOORD_0": 13
          },
          "indices": 14,
          "material": 0,
          "mode": 4
        }
      ]
    },
    {
      "name": "defaultMaterial",
      "primitives": [
        {
          "attributes": {
            "NORMAL": 16,
            "POSITION": 15,
            "TANGENT": 17,
            "TEXCOORD_0": 18
          },
          "indices": 19,
          "material": 0,
          "mode": 4
        }
      ]
    },
    {
      "name": "defaultMaterial",
      "primitives": [
        {
          "attributes": {
            "NORMAL": 21,
            "POSITION": 20,
            "TANGENT": 22,
            "TEXCOORD_0": 23
          },
          "indices": 24,
          "material": 0,
          "mode": 4
        }
      ]
    },
    {
      "name": "defaultMaterial",
      "primitives": [
        {
          "attributes": {
            "NORMAL": 26,
            "POSITION": 25,
            "TANGENT": 27,
            "TEXCOORD_0": 28
          },
          "indices": 29,
          "material": 0,
          "mode": 4
        }
      ]
    },
    {
      "name": "defaultMaterial",
      "primitives": [
        {
          "attributes": {
            "NORMAL": 31,
            "POSITION": 30,
            "TANGENT": 32,
            "TEXCOORD_0": 33
          },
          "indices": 34,
          "material": 0,
          "mode": 4
        }
      ]
    },
    {
      "name": "defaultMaterial",
      "primitives": [
        {
          "attributes": {
            "NORMAL": 36,
            "POSITION": 35,
            "TANGENT": 37,
            "TEXCOORD_0": 38
          },
          "indices": 39,
          "material": 0,
          "mode": 4
        }
      ]
    },
    {
      "name": "defaultMaterial",
      "primitives": [
        {
          "attributes": {
            "NORMAL": 41,
            "POSITION": 40,
            "TANGENT": 42,
            "TEXCOORD_0": 43
          },
          "indices": 44,
          "material": 0,
          "mode": 4
        }
      ]
    },
    {
      "name": "defaultMaterial",
      "primitives": [
        {
          "attributes": {
            "NORMAL": 46,
            "POSITION": 45,
            "TANGENT": 47,
            "TEXCOORD_0": 48
          },
          "indices": 49,
          "material": 0,
          "mode": 4
        }
      ]
    },
    {
      "name": "defaultMaterial",
      "primitives": [
        {
          "attributes": {
            "NORMAL": 51,
            "POSITION": 50,
            "TANGENT": 52,
            "TEXCOORD_0": 53
          },
          "indices": 54,
          "material": 0,
          "mode": 4
        }
      ]
    }
  ],
  "nodes": [
    {
      "children": [
        1
      ],
      "matrix": [
        1.0,
        0.0,
        0.0,
        0.0,
        0.0,
        2.220446049250313e-16,
        -1.0,
        0.0,
        0.0,
        1.0,
        2.220446049250313e-16,
        0.0,
        0.0,
        0.0,
        0.0,
        1.0
      ],
      "name": "Sketchfab_model"
    },
    {
      "children": [
        2,
        4,
        6,
        8,
        10,
        12,
        14,
        16,
        18,
        20,
        22
      ],
      "matrix": [
        1.0,
        0.0,
        0.0,
        0.0,
        0.0,
        -4.371139006309477e-08,
        0.999999999999999,
        0.0,
        0.0,
        -0.999999999999999,
        -4.371139006309477e-08,
        0.0,
        0.0,
        0.0,
        0.0,
        1.0
      ],
      "name": "Collada visual scene group"
    },
    {
      "children": [
        3
      ],
      "name": "g"
    },
    {
      "mesh": 0,
      "name": "defaultMaterial"
    },
    {
      "children": [
        5
      ],
      "name": "g"
    },
    {
      "mesh": 1,
      "name": "defaultMaterial"
    },
    {
      "children": [
        7
      ],
      "name": "g"
    },
    {
      "mesh": 2,
      "name": "defaultMaterial"
    },
    {
      "children": [
        9
      ],
      "name": "g"
    },
    {
      "mesh": 3,
      "name": "defaultMaterial"
    },
    {
      "children": [
        11
      ],
      "name": "g"
    },
    {
      "mesh": 4,
      "name": "defaultMaterial"
    },
    {
      "children": [
        13
      ],
      "name": "g"
    },
    {
      "mesh": 5,
      "name": "defaultMaterial"
    },
    {
      "children": [
        15
      ],
      "name": "g"
    },
    {
      "mesh": 6,
      "name": "defaultMaterial"
    },
    {
      "children": [
        17
      ],
      "name": "g"
    },
    {
      "mesh": 7,
      "name": "defaultMaterial"
    },
    {
      "children": [
        19
      ],
      "name": "g"
    },
    {
      "mesh": 8,
      "name": "defaultMaterial"
    },
    {
      "children": [
        21
      ],
      "name": "g"
    },
    {
      "mesh": 9,
      "name": "defaultMaterial"
    },
    {
      "children": [
        23
      ],
      "name": "g"
    },
    {
      "mesh": 10,
      "name": "defaultMaterial"
    }
  ],
  "samplers": [
    {
      "magFilter": 9729,
      "minFilter": 9987,
      "wrapS": 10497,
      "wrapT": 10497
    }
  ],
  "scene": 0,
  "scenes": [
    {
      "name": "Sketchfab_Scene",
      "nodes": [
        0
      ]
    }
  ],
  "textures": [
    {
      "sampler": 0,
      "source": 0
    },
    {
      "sampler": 0,
      "source": 1
    },
    {
      "sampler": 0,
      "source": 2
    }
  ]
}
